<svg width="256" height="293" viewBox="0 0 256 293" fill="none" xmlns="http://www.w3.org/2000/svg">
<path d="M121.863 1.65116C125.661 -0.550384 130.339 -0.550389 134.137 1.65116L249.863 68.7389C253.661 70.9405 256 75.0091 256 79.4122V213.588C256 217.991 253.661 222.06 249.863 224.261L134.137 291.349C130.339 293.55 125.661 293.55 121.863 291.349L6.1371 224.261C2.33945 222.06 0 217.991 0 213.588V79.4122C0 75.0091 2.33945 70.9405 6.13709 68.7389L121.863 1.65116Z" fill="url(#paint0_linear_780_40)"/>
<path d="M121.607 21.1648C125.405 18.9633 130.084 18.9633 133.881 21.1648L232.998 78.6242C236.796 80.8257 239.135 84.8943 239.135 89.2974V204.216C239.135 208.619 236.796 212.688 232.998 214.889L133.881 272.349C130.084 274.55 125.405 274.55 121.607 272.349L22.4904 214.889C18.6927 212.688 16.3533 208.619 16.3533 204.216V89.2974C16.3533 84.8943 18.6927 80.8257 22.4904 78.6242L121.607 21.1648Z" fill="#232122"/>
<path d="M43.1035 97.3378V197.764L120.895 242.398C120.895 242.398 120.892 181.547 120.887 157.192L102.014 148.798V148.02L120.887 136.527C120.882 113.209 120.895 50.4722 120.895 50.4722L43.1035 97.3378Z" fill="#FBFBFB"/>
<path d="M160.22 156.257V228.663L198.577 210.561V156.257H160.22Z" fill="#FBFBFB"/>
<path d="M160.22 64.3372V135.203H198.25L199.599 84.1795L160.22 64.3372Z" fill="#FBFBFB"/>
<path d="M95.0957 87.6312V135.092C95.0957 136.087 94.5234 136.992 93.6269 137.415L72.0699 147.595C70.374 148.396 68.4245 147.154 68.4245 145.272V100.258C68.4245 99.3444 68.9076 98.4999 69.6932 98.0398L91.2501 85.4134C92.9548 84.4149 95.0957 85.6496 95.0957 87.6312Z" fill="#232122"/>
<path d="M93.0286 224.484V170.912C93.0286 169.958 92.5021 169.083 91.6613 168.639L70.1043 157.261C68.4016 156.363 66.3574 157.603 66.3574 159.534V210.372C66.3574 211.24 66.794 212.049 67.518 212.523L89.075 226.635C90.7759 227.748 93.0286 226.523 93.0286 224.484Z" fill="#232122"/>
<defs>
<linearGradient id="paint0_linear_780_40" x1="128" y1="5.21659" x2="128" y2="476.551" gradientUnits="userSpaceOnUse">
<stop stop-color="#C5C5C5"/>
<stop offset="1" stop-color="#383839"/>
</linearGradient>
</defs>
</svg>
